<?xml version="1.0" encoding="iso-8859-1"?>
<!-- Generator: Adobe Illustrator 19.0.0, SVG Export Plug-In . SVG Version: 6.00 Build 0)  -->
<svg version="1.1" id="Layer_1" xmlns="http://www.w3.org/2000/svg" xmlns:xlink="http://www.w3.org/1999/xlink" x="0px" y="0px"
	 viewBox="0 0 512 512" style="enable-background:new 0 0 512 512;" xml:space="preserve" fill="white">
<g>
	<g>
		<path d="M335.644,2.844c-48.023,0-87.966,35.189-95.439,81.134c-39.53,7.432-69.539,42.189-69.539,83.844
			c0,21.958,17.864,39.822,39.822,39.822h91.022c21.958,0,39.822-17.864,39.822-39.822c0-40.564-28.458-74.582-66.452-83.202
			c6.716-27.316,31.405-47.642,60.763-47.642c78.421,0,142.222,63.801,142.222,142.222v108.089H0v17.067
			c0,75.214,47.336,139.571,113.778,164.873v39.927h34.133v-30.75c9.263,1.509,18.762,2.305,28.444,2.305h159.289
			c9.682,0,19.182-0.796,28.444-2.305v30.75h34.133v-39.927C464.664,443.927,512,379.569,512,304.356V179.2
			C512,81.957,432.887,2.844,335.644,2.844z M307.2,167.822c0,3.137-2.552,5.689-5.689,5.689h-91.022
			c-3.137,0-5.689-2.552-5.689-5.689c0-28.232,22.968-51.2,51.2-51.2S307.2,139.59,307.2,167.822z M335.644,446.578H176.356
			c-72.649,0-132.749-54.748-141.204-125.156h441.697C468.394,391.83,408.294,446.578,335.644,446.578z"/>
	</g>
</g>
<g>
	<g>
		<polygon points="341.332,224.711 307.2,224.711 307.199,224.711 307.199,270.222 307.2,270.222 341.332,270.222 341.333,270.222 
			341.333,224.711 		"/>
	</g>
</g>
<g>
	<g>
		<rect x="238.933" y="224.711" width="34.133" height="45.511"/>
	</g>
</g>
<g>
	<g>
		<rect x="170.667" y="224.711" width="34.133" height="45.511"/>
	</g>
</g>
<g>
</g>
<g>
</g>
<g>
</g>
<g>
</g>
<g>
</g>
<g>
</g>
<g>
</g>
<g>
</g>
<g>
</g>
<g>
</g>
<g>
</g>
<g>
</g>
<g>
</g>
<g>
</g>
<g>
</g>
</svg>
