<?xml version="1.0" encoding="iso-8859-1"?>
<!-- Generator: Adobe Illustrator 19.0.0, SVG Export Plug-In . SVG Version: 6.00 Build 0)  -->
<svg version="1.1" id="Layer_1" xmlns="http://www.w3.org/2000/svg" xmlns:xlink="http://www.w3.org/1999/xlink" x="0px" y="0px"
	 viewBox="0 0 512 512" style="enable-background:new 0 0 512 512;" xml:space="preserve" fill="white">
<g>
	<g>
		<path d="M449.422,159.289H273.067V51.2c0-9.411,7.656-17.067,17.067-17.067c9.412,0,17.067,7.656,17.067,17.067h34.133
			c0-28.232-22.967-51.2-51.2-51.2c-28.233,0-51.2,22.968-51.2,51.2v108.089H62.578c-28.232,0-51.2,22.967-51.2,51.2
			c0,18.512,9.876,34.76,24.635,43.754l47.374,189.49H204.8V460.8c0,28.233,22.968,51.2,51.2,51.2c28.233,0,51.2-22.967,51.2-51.2
			v-17.067h121.415l47.373-189.49c14.759-8.994,24.635-25.243,24.635-43.754C500.622,182.256,477.655,159.289,449.422,159.289z
			 M273.067,460.8c0,9.412-7.656,17.067-17.067,17.067c-9.411,0-17.067-7.655-17.067-17.067v-17.067h34.133V460.8z M401.963,409.6
			H110.036L73.058,261.689h365.883L401.963,409.6z M449.422,227.556H62.578c-9.411,0-17.067-7.656-17.067-17.067
			s7.656-17.067,17.067-17.067h386.844c9.412,0,17.067,7.656,17.067,17.067S458.834,227.556,449.422,227.556z"/>
	</g>
</g>
<g>
</g>
<g>
</g>
<g>
</g>
<g>
</g>
<g>
</g>
<g>
</g>
<g>
</g>
<g>
</g>
<g>
</g>
<g>
</g>
<g>
</g>
<g>
</g>
<g>
</g>
<g>
</g>
<g>
</g>
</svg>
